<svg width="24" height="24" viewBox="0 0 24 24" fill="none" xmlns="http://www.w3.org/2000/svg">
<g clip-path="url(#clip0_403_3224)">
<path d="M22.8531 1.14801C22.1733 0.469212 21.2518 0.0879517 20.2911 0.0879517C19.3304 0.0879517 18.409 0.469212 17.7291 1.14801L1.46514 17.412C0.999388 17.8751 0.630099 18.426 0.378635 19.0328C0.127171 19.6396 -0.00147591 20.2902 0.000137052 20.947V23C0.000137052 23.2652 0.105494 23.5196 0.29303 23.7071C0.480567 23.8947 0.734921 24 1.00014 24H3.05314C3.7099 24.0019 4.36051 23.8734 4.96729 23.6221C5.57408 23.3708 6.12499 23.0017 6.58814 22.536L22.8531 6.27101C23.5316 5.59121 23.9127 4.66998 23.9127 3.70951C23.9127 2.74905 23.5316 1.82782 22.8531 1.14801ZM5.17414 21.122C4.61014 21.6823 3.8481 21.9977 3.05314 22H2.00014V20.947C1.99913 20.5529 2.07629 20.1625 2.22717 19.7985C2.37806 19.4344 2.59965 19.1039 2.87914 18.826L15.2221 6.48301L17.5221 8.78302L5.17414 21.122ZM21.4381 4.85701L18.9321 7.36401L16.6321 5.06901L19.1391 2.56201C19.2902 2.41132 19.4694 2.29185 19.6666 2.21042C19.8638 2.129 20.0751 2.0872 20.2884 2.08744C20.5017 2.08767 20.713 2.12992 20.91 2.21178C21.107 2.29363 21.2859 2.41349 21.4366 2.56451C21.5873 2.71553 21.7068 2.89476 21.7882 3.09195C21.8697 3.28914 21.9114 3.50044 21.9112 3.71378C21.911 3.92713 21.8687 4.13833 21.7869 4.33535C21.705 4.53236 21.5852 4.71132 21.4341 4.86201L21.4381 4.85701Z" fill="#000000"/>
</g>
<defs>
<clipPath id="clip0_403_3224">
<rect width="24" height="24" fill="white"/>
</clipPath>
</defs>
</svg>
